<svg width="59" height="59" viewBox="0 0 59 59" fill="none" xmlns="http://www.w3.org/2000/svg">
<g filter="url(#filter0_d_136_234)">
<path d="M32.8463 21.3888C38.0062 10.884 43.0586 10.6452 44.9398 11.839C48.6484 13.4306 46.6808 19.5982 45.746 22.7815C42.4744 33.923 34.6604 45.4624 25.7919 47.253C19.2752 48.5688 10.7869 47.7047 9.37592 41.1391C8.16718 35.5145 12.8922 31.7345 17.3265 30.7397C21.7608 29.745 27.6865 31.8937 32.8463 21.3888Z" fill="#A33795"/>
<path fill-rule="evenodd" clip-rule="evenodd" d="M44.9397 11.8388C48.5227 13.3765 46.8076 19.1854 45.8443 22.4478C45.8105 22.5622 45.7777 22.6735 45.746 22.7813C42.4744 33.9228 34.6604 45.4622 25.7919 47.2528C19.2752 48.5686 10.7869 47.7045 9.37591 41.139C8.16717 35.5143 12.8922 31.7343 17.3265 30.7396C18.2305 30.5368 19.1965 30.4646 20.2053 30.3892C24.145 30.095 28.7384 29.7519 32.8463 21.3886C38.0062 10.8838 43.0585 10.6451 44.9397 11.8388ZM39.5131 11.1593C41.9223 9.78386 44.1109 9.90879 45.5121 10.7478C48.0651 11.8996 48.4607 14.5837 48.3105 16.7964C48.1655 18.933 47.4879 21.2246 47.0281 22.7794C46.9925 22.9001 46.9581 23.0163 46.9254 23.1277C45.2513 28.8288 42.415 34.6396 38.8412 39.2743C35.2866 43.884 30.8847 47.4786 26.0352 48.4577C22.6536 49.1405 18.6945 49.2755 15.3376 48.335C11.9522 47.3864 9.00714 45.2732 8.17418 41.3972C7.47681 38.1521 8.50742 35.41 10.3187 33.3839C12.1003 31.3909 14.6316 30.0844 17.0574 29.5402C18.0583 29.3157 19.1364 29.2357 20.1487 29.1606C20.3683 29.1443 20.5848 29.1282 20.7968 29.1109C22.034 29.0102 23.2294 28.866 24.423 28.4652C26.7227 27.6928 29.2716 25.8784 31.7431 20.8467C34.38 15.4782 37.0738 12.5519 39.5131 11.1593Z" fill="#800771"/>
<path fill-rule="evenodd" clip-rule="evenodd" d="M9.85498 42.6287C12.1532 47.8307 19.8045 48.4618 25.7916 47.253C34.6601 45.4624 42.4741 33.9229 45.7457 22.7815C45.7774 22.6736 45.8102 22.5623 45.844 22.4479C46.8073 19.1855 48.5224 13.3766 44.9394 11.8389C44.8677 11.7933 44.7912 11.7499 44.7104 11.709C45.1933 14.1276 44.2166 17.4353 43.5743 19.6108C43.5405 19.7252 43.5077 19.8365 43.476 19.9443C40.2044 31.0858 32.3904 42.6252 23.5219 44.4158C18.8752 45.354 13.226 45.1839 9.85498 42.6287Z" fill="#8E2A82"/>
<path d="M31.4727 39.9306C31.2095 40.2347 30.7496 40.268 30.4454 40.0048C30.1412 39.7416 30.108 39.2817 30.3712 38.9775C30.6343 38.6734 31.0943 38.6401 31.3984 38.9033C31.7026 39.1665 31.7358 39.6264 31.4727 39.9306Z" fill="#6D1863"/>
<path d="M36.4302 37.2669C36.0965 37.6525 35.5134 37.6947 35.1278 37.361C34.7422 37.0274 34.7001 36.4443 35.0337 36.0586C35.3674 35.673 35.9505 35.6309 36.3361 35.9645C36.7217 36.2982 36.7639 36.8813 36.4302 37.2669Z" fill="#6D1863"/>
<path d="M40.2894 32.3583C39.9558 32.7439 39.3727 32.7861 38.9871 32.4524C38.6014 32.1187 38.5593 31.5356 38.893 31.15C39.2266 30.7644 39.8097 30.7222 40.1953 31.0559C40.581 31.3896 40.6231 31.9727 40.2894 32.3583Z" fill="#6D1863"/>
<path d="M29.9261 42.8665C29.5925 43.2522 29.0093 43.2943 28.6237 42.9606C28.2381 42.627 28.196 42.0439 28.5296 41.6582C28.8633 41.2726 29.4464 41.2305 29.832 41.5641C30.2176 41.8978 30.2598 42.4809 29.9261 42.8665Z" fill="#6D1863"/>
<path d="M34.0008 39.4266C33.7505 39.7159 33.3132 39.7475 33.024 39.4972C32.7347 39.247 32.7031 38.8096 32.9534 38.5204C33.2036 38.2312 33.641 38.1996 33.9302 38.4498C34.2194 38.7001 34.251 39.1374 34.0008 39.4266Z" fill="#6D1863"/>
<path d="M32.8441 41.9928C32.5938 42.2821 32.1565 42.3137 31.8673 42.0634C31.578 41.8132 31.5464 41.3758 31.7967 41.0866C32.0469 40.7974 32.4843 40.7658 32.7735 41.016C33.0627 41.2663 33.0943 41.7036 32.8441 41.9928Z" fill="#6D1863"/>
<path d="M37.821 35.1778C37.5707 35.4671 37.1334 35.4987 36.8442 35.2484C36.5549 34.9982 36.5233 34.5608 36.7736 34.2716C37.0238 33.9824 37.4612 33.9508 37.7504 34.201C38.0396 34.4513 38.0712 34.8886 37.821 35.1778Z" fill="#6D1863"/>
<path d="M33.6118 37.1637C33.3615 37.4529 32.9242 37.4845 32.635 37.2343C32.3458 36.984 32.3142 36.5467 32.5644 36.2575C32.8147 35.9682 33.252 35.9367 33.5412 36.1869C33.8304 36.4371 33.862 36.8745 33.6118 37.1637Z" fill="#6D1863"/>
<path d="M27.4172 45.0696C27.0835 45.4552 26.5004 45.4974 26.1148 45.1637C25.7291 44.8301 25.687 44.247 26.0207 43.8613C26.3543 43.4757 26.9374 43.4336 27.3231 43.7672C27.7087 44.1009 27.7508 44.684 27.4172 45.0696Z" fill="#6D1863"/>
<path d="M27.3911 41.769C27.0574 42.1546 26.4743 42.1968 26.0887 41.8631C25.7031 41.5295 25.661 40.9463 25.9946 40.5607C26.3283 40.1751 26.9114 40.133 27.297 40.4666C27.6826 40.8003 27.7248 41.3834 27.3911 41.769Z" fill="#6D1863"/>
<path d="M23.8788 46.1708C23.5451 46.5564 22.962 46.5986 22.5764 46.2649C22.1907 45.9312 22.1486 45.3481 22.4823 44.9625C22.8159 44.5769 23.399 44.5348 23.7847 44.8684C24.1703 45.2021 24.2124 45.7852 23.8788 46.1708Z" fill="#6D1863"/>
<path d="M24.1988 43.4321C23.9337 43.7385 23.4703 43.772 23.1639 43.5068C22.8575 43.2417 22.824 42.7784 23.0891 42.4719C23.3543 42.1655 23.8176 42.132 24.124 42.3972C24.4304 42.6623 24.4639 43.1256 24.1988 43.4321Z" fill="#6D1863"/>
<path d="M41.2096 29.6297C41.0445 29.8205 40.756 29.8413 40.5653 29.6762C40.3745 29.5112 40.3536 29.2227 40.5187 29.0319C40.6838 28.8412 40.9722 28.8203 41.163 28.9854C41.3538 29.1504 41.3746 29.4389 41.2096 29.6297Z" fill="#6D1863"/>
<path d="M37.4754 32.9427C37.3104 33.1335 37.0219 33.1543 36.8311 32.9892C36.6403 32.8242 36.6195 32.5357 36.7846 32.3449C36.9496 32.1542 37.2381 32.1333 37.4289 32.2984C37.6197 32.4635 37.6405 32.7519 37.4754 32.9427Z" fill="#6D1863"/>
<path d="M20.2435 46.38C19.9933 46.6692 19.556 46.7008 19.2667 46.4506C18.9775 46.2003 18.9459 45.763 19.1962 45.4738C19.4464 45.1845 19.8837 45.1529 20.173 45.4032C20.4622 45.6534 20.4938 46.0908 20.2435 46.38Z" fill="#6D1863"/>
<path d="M20.6033 32.8997C21.6521 34.4603 20.469 37.0919 17.9607 38.7776C15.4525 40.4632 12.5689 40.5646 11.5201 39.004C10.4713 37.4434 11.6544 34.8117 14.1627 33.1261C16.671 31.4404 19.5546 31.3391 20.6033 32.8997Z" fill="#C448B5"/>
<path d="M40.3081 15.0602C41.7659 16.2477 39.986 21.476 35.9532 26.427C31.9203 31.378 26.4271 32.2654 24.8906 31.9582C23.4328 30.7707 27.9636 32.2654 31.651 26.427C34.7239 20.5884 38.8502 13.8727 40.3081 15.0602Z" fill="#C448B5"/>
<path fill-rule="evenodd" clip-rule="evenodd" d="M16.03 34.5599C16.4285 35.1094 16.3061 35.878 15.7565 36.2765C15.3799 36.5496 15.0975 36.8678 14.8925 37.2335C14.5605 37.8256 13.8113 38.0365 13.2192 37.7045C12.627 37.3725 12.4162 36.6233 12.7482 36.0312C13.1355 35.3405 13.6628 34.758 14.3134 34.2863C14.863 33.8878 15.6315 34.0103 16.03 34.5599Z" fill="white"/>
<path fill-rule="evenodd" clip-rule="evenodd" d="M50.717 10.5395C47.5768 10.1208 45.82 11.7616 45.3673 12.5162C45.1926 12.8072 44.8151 12.9016 44.5241 12.727C44.233 12.5523 44.1386 12.1748 44.3133 11.8838C44.9954 10.7469 47.2106 8.83188 50.8795 9.32107C51.2159 9.36593 51.4523 9.67504 51.4075 10.0115C51.3626 10.3479 51.0535 10.5843 50.717 10.5395Z" fill="#537003"/>
<path d="M46.1209 11.2853C42.2526 7.33655 38.5267 11.2853 35.4155 12.2148C37.548 13.8297 44.4951 15.7716 46.1209 11.2853Z" fill="#A3D711"/>
<path fill-rule="evenodd" clip-rule="evenodd" d="M43.3631 9.02923C44.4496 9.22598 45.5184 9.79217 46.5598 10.8553C46.7251 11.024 46.779 11.2726 46.6986 11.4947C45.7467 14.1213 43.2345 14.7842 40.9229 14.6516C38.6109 14.519 36.2201 13.5951 35.0444 12.7048C34.8598 12.565 34.7694 12.3333 34.8106 12.1054C34.8518 11.8776 35.0176 11.6922 35.2395 11.6259C35.9511 11.4133 36.7137 11.0224 37.5738 10.5765C37.5901 10.5681 37.6065 10.5596 37.6229 10.5511C38.448 10.1233 39.3515 9.65486 40.2874 9.33852C41.2488 9.01353 42.2848 8.83393 43.3631 9.02923ZM36.8116 12.3299C37.9132 12.8613 39.4659 13.3368 40.9933 13.4244C42.9531 13.5368 44.6284 13.0145 45.3919 11.4351C44.6052 10.7158 43.8547 10.3674 43.1441 10.2387C42.3387 10.0929 41.5235 10.2182 40.681 10.503C39.8347 10.789 39.0021 11.2207 38.1493 11.6627L38.1355 11.6699C37.7009 11.8952 37.2567 12.1254 36.8116 12.3299Z" fill="#709604"/>
<path d="M46.2949 11.35C45.0161 12.5355 43.0975 17.631 49.0512 21.2032C48.4751 18.7065 52.5083 12.4454 46.2949 11.35Z" fill="#8CBA08"/>
<path fill-rule="evenodd" clip-rule="evenodd" d="M44.3471 15.4159C44.2332 13.3827 45.0905 11.6283 45.877 10.8992C46.018 10.7684 46.2121 10.7112 46.4015 10.7446C48.0657 11.038 49.1568 11.7007 49.7818 12.6667C50.3939 13.6128 50.4838 14.7379 50.3996 15.7996C50.3302 16.676 50.1334 17.5863 49.9578 18.399C49.9214 18.5673 49.886 18.7315 49.8527 18.8903C49.7534 19.3647 49.6729 19.7925 49.6334 20.1717C49.5934 20.5551 49.6 20.8486 49.65 21.065C49.7054 21.3052 49.6119 21.5553 49.4125 21.7003C49.2131 21.8452 48.9463 21.857 48.7349 21.7302C45.6037 19.8514 44.4645 17.5104 44.3471 15.4159ZM48.4114 20.0385C48.4581 19.5947 48.5494 19.1171 48.6496 18.6384C48.6863 18.4631 48.7242 18.2876 48.762 18.112C48.9369 17.3007 49.112 16.4887 49.1743 15.7025C49.2498 14.7499 49.1469 13.9483 48.7497 13.3343C48.3955 12.7868 47.7435 12.2929 46.514 12.0198C46.0445 12.6164 45.4911 13.8608 45.5744 15.3471C45.6551 16.7877 46.3405 18.4975 48.4114 20.0385Z" fill="#709604"/>
<path d="M45.975 11.3489C44.2728 10.9706 40.8114 11.7461 40.5845 17.8743C43.2325 17.496 48.0178 15.6613 45.975 11.3489Z" fill="#CDFD44"/>
<path fill-rule="evenodd" clip-rule="evenodd" d="M42.3353 11.6976C43.6117 10.6449 45.1046 10.526 46.1082 10.749C46.2933 10.7902 46.4491 10.9145 46.5303 11.0859C47.0898 12.267 47.2074 13.3384 46.9618 14.2885C46.7179 15.232 46.1352 15.9815 45.4288 16.5619C44.0348 17.7071 42.0509 18.2857 40.6712 18.4828C40.4909 18.5086 40.3085 18.453 40.1731 18.3312C40.0377 18.2093 39.9634 18.0337 39.9701 17.8517C40.0877 14.6776 41.05 12.7578 42.3353 11.6976ZM41.2467 17.1284C42.3902 16.874 43.7125 16.3811 44.6485 15.6121C45.2141 15.1475 45.6101 14.6061 45.7717 13.9809C45.9155 13.4247 45.8894 12.7419 45.5468 11.9009C44.859 11.8266 43.9308 11.975 43.1174 12.6459C42.2739 13.3416 41.4681 14.6716 41.2467 17.1284Z" fill="#709604"/>
</g>
<defs>
<filter id="filter0_d_136_234" x="0" y="0" width="63" height="63" filterUnits="userSpaceOnUse" color-interpolation-filters="sRGB">
<feFlood flood-opacity="0" result="BackgroundImageFix"/>
<feColorMatrix in="SourceAlpha" type="matrix" values="0 0 0 0 0 0 0 0 0 0 0 0 0 0 0 0 0 0 127 0" result="hardAlpha"/>
<feOffset dx="4" dy="4"/>
<feColorMatrix type="matrix" values="0 0 0 0 0 0 0 0 0 0 0 0 0 0 0 0 0 0 0.2 0"/>
<feBlend mode="normal" in2="BackgroundImageFix" result="effect1_dropShadow_136_234"/>
<feBlend mode="normal" in="SourceGraphic" in2="effect1_dropShadow_136_234" result="shape"/>
</filter>
</defs>
</svg>
