<svg width="59" height="59" viewBox="0 0 59 59" fill="none" xmlns="http://www.w3.org/2000/svg">
<g filter="url(#filter0_d_136_503)">
<path fill-rule="evenodd" clip-rule="evenodd" d="M44.4048 32.2038C44.6808 37.8932 39.783 43.6013 32.557 45.5486C25.3568 47.4889 18.2788 45.0392 15.6363 40.0179C14.415 40.333 13.1947 39.7162 12.9022 38.6306C12.6096 37.545 13.3547 36.3986 14.569 36.0573C14.3308 30.3882 19.2195 24.7138 26.4196 22.7735C33.6455 20.8263 40.7483 23.3005 43.3685 28.358C44.3978 28.3092 45.3288 28.895 45.5794 29.8248C45.8299 30.7545 45.3194 31.7289 44.4048 32.2038Z" fill="#FFD12F"/>
<path fill-rule="evenodd" clip-rule="evenodd" d="M45.6437 32.8442C45.5448 39.0289 40.1892 44.7646 32.8767 46.7352C25.6493 48.6828 18.2292 46.4904 14.9732 41.3261C13.5258 41.3133 12.1251 40.4715 11.7152 38.9503C11.3052 37.429 12.0933 35.9973 13.3383 35.2591C13.5586 29.158 18.8723 23.5341 26.0996 21.5865C33.4121 19.616 40.9245 21.884 44.1177 27.1814C45.323 27.393 46.4154 28.2036 46.766 29.5048C47.1166 30.8059 46.5795 32.0556 45.6437 32.8442ZM44.4047 32.2037C44.6806 37.893 39.7828 43.6011 32.5568 45.5484C25.3566 47.4887 18.2786 45.039 15.6361 40.0177C14.4148 40.3328 13.1945 39.716 12.902 38.6304C12.6095 37.5448 13.3546 36.3984 14.5688 36.0572C14.3306 30.3881 19.2193 24.7137 26.4194 22.7734C33.6453 20.8261 40.7481 23.3003 43.3683 28.3578C44.3976 28.309 45.3286 28.8949 45.5792 29.8246C45.8297 30.7543 45.3192 31.7287 44.4047 32.2037Z" fill="#755F13"/>
<path d="M28.2368 27.4903C29.1137 29.4124 27.4872 32.0368 24.6041 33.352C21.721 34.6672 18.6729 34.1753 17.7961 32.2532C16.9193 30.3311 18.5457 27.7067 21.4289 26.3915C24.312 25.0763 27.36 25.5682 28.2368 27.4903Z" fill="#FFEA2F"/>
<path d="M15.0078 37.0424C15.2048 37.4744 14.974 38.0027 14.4922 38.2225C14.0104 38.4423 13.4601 38.2703 13.2631 37.8383C13.066 37.4063 13.2968 36.878 13.7786 36.6582C14.2604 36.4384 14.8107 36.6104 15.0078 37.0424Z" fill="#FFEA2F"/>
<path fill-rule="evenodd" clip-rule="evenodd" d="M28.1681 42.1063C36.371 39.8958 41.7453 33.3708 40.1719 27.5324C39.7069 25.8067 38.6869 24.3341 37.2688 23.1729C39.9757 24.224 42.1536 26.0133 43.3682 28.3579C44.3976 28.309 45.3285 28.8949 45.5791 29.8246C45.8296 30.7544 45.3191 31.7287 44.4046 32.2037C44.6805 37.893 39.7827 43.6011 32.5568 45.5484C26.3066 47.2326 20.1485 45.609 16.9038 41.8668C20.0954 43.0316 24.0975 43.2032 28.1681 42.1063Z" fill="#DEB523"/>
<path d="M39.8702 34.8808C39.4573 35.3325 38.7563 35.364 38.3045 34.9511C37.8528 34.5381 37.8213 33.8371 38.2342 33.3854C38.6472 32.9336 39.3482 32.9021 39.7999 33.3151C40.2517 33.728 40.2832 34.429 39.8702 34.8808Z" fill="#C89616"/>
<path d="M40.8287 38.1454C40.4158 38.5972 39.7148 38.6287 39.263 38.2157C38.8113 37.8028 38.7798 37.1018 39.1927 36.65C39.6057 36.1983 40.3067 36.1668 40.7584 36.5797C41.2102 36.9927 41.2417 37.6937 40.8287 38.1454Z" fill="#C89616"/>
<path d="M42.8498 35.113C42.5401 35.4518 42.0144 35.4754 41.6755 35.1657C41.3367 34.856 41.3131 34.3302 41.6228 33.9914C41.9325 33.6526 42.4583 33.629 42.7971 33.9387C43.1359 34.2484 43.1595 34.7741 42.8498 35.113Z" fill="#C89616"/>
<path d="M38.212 41.0082C37.7991 41.46 37.0981 41.4915 36.6463 41.0785C36.1946 40.6656 36.1631 39.9646 36.576 39.5128C36.989 39.0611 37.69 39.0296 38.1417 39.4425C38.5935 39.8555 38.625 40.5564 38.212 41.0082Z" fill="#C89616"/>
<path d="M37.2535 37.1293C36.8406 37.5811 36.1396 37.6125 35.6878 37.1996C35.2361 36.7867 35.2046 36.0857 35.6175 35.6339C36.0305 35.1821 36.7315 35.1507 37.1832 35.5636C37.635 35.9766 37.6665 36.6775 37.2535 37.1293Z" fill="#C89616"/>
<path d="M34.5739 42.7236C34.0327 43.3157 33.1139 43.3569 32.5218 42.8157C31.9297 42.2745 31.8884 41.3557 32.4297 40.7635C32.9709 40.1714 33.8897 40.1302 34.4818 40.6714C35.0739 41.2127 35.1152 42.1314 34.5739 42.7236Z" fill="#C89616"/>
<path d="M30.0397 44.2069C29.6267 44.6587 28.9257 44.6902 28.474 44.2772C28.0222 43.8643 27.9907 43.1633 28.4037 42.7115C28.8166 42.2598 29.5176 42.2283 29.9694 42.6413C30.4211 43.0542 30.4526 43.7552 30.0397 44.2069Z" fill="#C89616"/>
<path d="M33.3592 38.6888C33.0431 39.0346 32.5065 39.0587 32.1607 38.7426C31.8149 38.4265 31.7908 37.8899 32.1069 37.5441C32.423 37.1983 32.9595 37.1742 33.3053 37.4903C33.6512 37.8064 33.6753 38.343 33.3592 38.6888Z" fill="#C89616"/>
<path d="M31.2637 41.4563C31.009 41.7349 30.5766 41.7544 30.298 41.4996C30.0193 41.2449 29.9999 40.8125 30.2546 40.5339C30.5093 40.2552 30.9417 40.2358 31.2204 40.4905C31.4991 40.7452 31.5185 41.1776 31.2637 41.4563Z" fill="#C89616"/>
<path d="M25.7561 44.8576C25.4464 45.1964 24.9206 45.22 24.5818 44.9103C24.243 44.6006 24.2194 44.0749 24.5291 43.7361C24.8388 43.3972 25.3645 43.3736 25.7033 43.6833C26.0422 43.993 26.0658 44.5188 25.7561 44.8576Z" fill="#C89616"/>
<path fill-rule="evenodd" clip-rule="evenodd" d="M22.7272 28.5606C23.0307 29.1678 22.7846 29.9061 22.1775 30.2097C21.6912 30.4528 21.3023 30.7675 20.9937 31.1532C20.5696 31.6833 19.7961 31.7693 19.266 31.3452C18.736 30.9211 18.65 30.1476 19.0741 29.6175C19.6155 28.9407 20.2892 28.4053 21.0781 28.0109C21.6852 27.7073 22.4236 27.9534 22.7272 28.5606Z" fill="white"/>
<path fill-rule="evenodd" clip-rule="evenodd" d="M43.2978 31.6404C44.327 31.6404 45.1614 30.806 45.1614 29.7768C45.1614 29.4538 45.0793 29.1501 44.9347 28.8853C45.5139 29.2014 45.9069 29.8159 45.9069 30.5222C45.9069 31.5515 45.0725 32.3859 44.0432 32.3859C43.3369 32.3859 42.7224 31.9929 42.4062 31.4137C42.6711 31.5583 42.9748 31.6404 43.2978 31.6404Z" fill="#AE8C14"/>
</g>
<defs>
<filter id="filter0_d_136_503" x="0" y="0" width="63" height="63" filterUnits="userSpaceOnUse" color-interpolation-filters="sRGB">
<feFlood flood-opacity="0" result="BackgroundImageFix"/>
<feColorMatrix in="SourceAlpha" type="matrix" values="0 0 0 0 0 0 0 0 0 0 0 0 0 0 0 0 0 0 127 0" result="hardAlpha"/>
<feOffset dx="4" dy="4"/>
<feColorMatrix type="matrix" values="0 0 0 0 0 0 0 0 0 0 0 0 0 0 0 0 0 0 0.2 0"/>
<feBlend mode="normal" in2="BackgroundImageFix" result="effect1_dropShadow_136_503"/>
<feBlend mode="normal" in="SourceGraphic" in2="effect1_dropShadow_136_503" result="shape"/>
</filter>
</defs>
</svg>
