<svg width="94" height="112" viewBox="0 0 94 112" fill="none" xmlns="http://www.w3.org/2000/svg">
<path d="M77.9897 38C77.9897 18.67 62.3197 3 42.9897 3C23.6598 3 7.98975 18.67 7.98975 38C7.98975 54.3985 19.2673 68.163 34.4897 71.9607" stroke="#F9B404" stroke-width="5"/>
<path d="M44.4894 108.5C58.9894 106 67.4894 89.5 72.9895 77.5C80.3229 61.5 84.3231 43.6667 88.4898 37C76.6565 38.5 59.9895 42.7588 49.9898 50C43.9898 54.3448 31.4891 64.5 35.9894 86" stroke="#3C9C0F" stroke-width="5" stroke-linecap="round"/>
<path d="M30.9897 35C34.4897 41 53.8494 77.8821 63.9897 93.9416C45.4277 120.457 24.6314 106.015 16.5535 95.4792C27.2782 97.8027 30.1885 88.1328 30.3031 83.0075C30.4406 82.3241 30.0167 80.6726 29.7875 79.9323C27.8626 74.7386 23.4856 75.832 21.5377 77.0279C21.5377 77.0279 17.9897 79 13.9754 80.6157C9.96111 82.2313 1.80543 76.0136 3.14759 72.7568C4.48975 69.5 18.4441 56.1848 18.4441 56.1848C18.4441 56.1848 23.4897 52.0117 22.4897 50.5C21.1667 48.5 21.3079 46.4706 21.4897 44.5C21.754 41.6362 22.6936 39.0924 22.9897 38.5C22.9897 38.5 24.9897 43.5 26.9897 46C29.6767 49.3586 29.9897 47 29.9897 45C29.9897 43 29.4897 39 30.9897 35Z" stroke="black" stroke-width="5" stroke-linecap="round"/>
</svg>
