<svg width="59" height="59" viewBox="0 0 59 59" fill="none" xmlns="http://www.w3.org/2000/svg">
<g filter="url(#filter0_d_136_95)">
<path d="M10.199 22.1268C8.9085 30.8398 14.2158 35.8947 21.6104 35.7167C29.0051 35.5387 37.0638 37.0136 39.1457 29.0856C40.9256 22.3074 37.6735 19.502 28.7373 16.0621C19.8012 12.6222 11.4895 13.4137 10.199 22.1268Z" fill="#CA8E34"/>
<path fill-rule="evenodd" clip-rule="evenodd" d="M11.7326 33.0764C14.1084 35.7259 17.6582 37.0413 21.6399 36.9454C22.7383 36.919 23.8132 36.9292 24.9041 36.9396C25.6524 36.9467 26.4082 36.9539 27.1843 36.9494C29.0308 36.9387 30.8932 36.8587 32.613 36.5123C34.3401 36.1643 35.9876 35.5355 37.3588 34.3817C38.7431 33.2167 39.7589 31.5895 40.3345 29.3977C41.2891 25.7625 40.9477 22.9025 38.8905 20.5188C36.9588 18.2805 33.6342 16.63 29.1788 14.9149C24.6042 13.154 20.0085 12.3983 16.2969 13.346C14.4173 13.826 12.7495 14.7483 11.4621 16.2058C10.1763 17.6615 9.33376 19.5788 8.98306 21.9466C8.2961 26.5846 9.34927 30.4185 11.7326 33.0764ZM21.6104 35.7166C14.2157 35.8946 8.90844 30.8397 10.199 22.1267C11.4895 13.4136 19.8011 12.6222 28.7373 16.062C37.6734 19.5019 40.9256 22.3073 39.1456 29.0855C37.3756 35.826 31.285 35.7695 24.9554 35.7107C23.8404 35.7004 22.7179 35.69 21.6104 35.7166Z" fill="#855D22"/>
<path d="M22.2445 16.4866C23.0325 18.0514 21.2114 19.7186 18.8643 20.9006C16.5171 22.0827 13.7945 22.4654 13.0064 20.9006C12.2184 19.3359 13.4823 17.1092 15.8295 15.9271C18.1766 14.7451 21.4564 14.9218 22.2445 16.4866Z" fill="#DB9F45"/>
<path fill-rule="evenodd" clip-rule="evenodd" d="M10.1403 22.5576C10.9355 24.639 12.334 26.4841 14.5788 27.2338C20.4473 29.1938 32.4715 26.2905 30.6817 18.9816C30.4404 17.9963 30.0392 17.1303 29.5179 16.3667C37.8622 19.6719 40.8729 22.5084 39.1458 29.0855C37.3758 35.826 31.2852 35.7695 24.9556 35.7107C23.8406 35.7004 22.7181 35.6899 21.6105 35.7166C14.3387 35.8916 9.08541 31.0061 10.1403 22.5576Z" fill="#AA7A32"/>
<path d="M48.9739 32.3609C47.471 24.6075 39.4571 19.6718 30.469 26.2807C21.4809 32.8895 13.8146 30.246 14.5062 38.1873C15.1143 45.1688 24.9178 46.6361 33.1126 46.6361C41.3075 46.6361 50.166 39.2667 48.9739 32.3609Z" fill="#DD9B38"/>
<path fill-rule="evenodd" clip-rule="evenodd" d="M50.1827 32.1392L50.1803 32.1268C49.3628 27.9092 46.7515 24.3582 42.9996 22.7997C39.2077 21.2245 34.5061 21.7862 29.7406 25.2903C26.3612 27.7751 23.2409 28.8684 20.5534 29.8101C19.8036 30.0728 19.0874 30.3238 18.4088 30.5898C16.8997 31.1814 15.4549 31.8998 14.4769 33.1477C13.4598 34.4456 13.0919 36.1175 13.2814 38.2938C13.6472 42.4938 16.8148 44.8833 20.559 46.1901C24.3073 47.4984 28.9722 47.8651 33.1123 47.8651C37.5526 47.8651 42.0951 45.8828 45.3728 43.0128C48.625 40.1652 50.8838 36.2008 50.1849 32.1516L50.1827 32.1392ZM48.9736 32.3607C50.1657 39.2666 41.3072 46.636 33.1123 46.636C24.9175 46.636 15.114 45.1687 14.5059 38.1871C14.0869 33.3764 16.7352 32.4501 20.8865 30.9981C23.5878 30.0532 26.9256 28.8858 30.4687 26.2805C39.4568 19.6717 47.4707 24.6074 48.9736 32.3607Z" fill="#976923"/>
<path fill-rule="evenodd" clip-rule="evenodd" d="M41.1755 23.4878C43.9984 24.89 46.0111 27.7262 46.6741 31.1465C47.7932 37.6298 39.4767 44.5483 31.7833 44.5483C24.4821 44.5483 15.8208 43.3077 14.4686 37.5791C14.4753 37.7747 14.4878 37.9773 14.5061 38.1873C15.1141 45.1688 24.9176 46.6361 33.1125 46.6361C41.3073 46.6361 50.1659 39.2667 48.9738 32.3609C48.1236 27.9751 45.1902 24.4909 41.1755 23.4878Z" fill="#CA8E34"/>
<path d="M32.1258 31.3665C31.6907 31.7561 31.0222 31.7192 30.6326 31.2841C30.243 30.849 30.2799 30.1805 30.715 29.791C31.1501 29.4014 31.8186 29.4383 32.2082 29.8734C32.5977 30.3085 32.5608 30.977 32.1258 31.3665Z" fill="#996518"/>
<path d="M21.6778 41.1999C21.2427 41.5894 20.5742 41.5525 20.1847 41.1174C19.7951 40.6824 19.832 40.0139 20.2671 39.6243C20.7022 39.2347 21.3707 39.2716 21.7603 39.7067C22.1498 40.1418 22.1129 40.8103 21.6778 41.1999Z" fill="#996518"/>
<path d="M27.2091 37.5124C26.774 37.9019 26.1055 37.865 25.7159 37.4299C25.3264 36.9949 25.3633 36.3264 25.7984 35.9368C26.2334 35.5472 26.902 35.5841 27.2915 36.0192C27.6811 36.4543 27.6442 37.1228 27.2091 37.5124Z" fill="#996518"/>
<path d="M32.1258 41.1999C31.6907 41.5894 31.0222 41.5525 30.6326 41.1174C30.243 40.6824 30.2799 40.0139 30.715 39.6243C31.1501 39.2347 31.8186 39.2716 32.2082 39.7067C32.5977 40.1418 32.5608 40.8103 32.1258 41.1999Z" fill="#996518"/>
<path d="M40.1153 33.2103C39.6803 33.5999 39.0117 33.5629 38.6222 33.1279C38.2326 32.6928 38.2695 32.0243 38.7046 31.6347C39.1397 31.2452 39.8082 31.2821 40.1978 31.7171C40.5873 32.1522 40.5504 32.8207 40.1153 33.2103Z" fill="#996518"/>
<path d="M40.1153 27.0645C39.6803 27.454 39.0117 27.4171 38.6222 26.982C38.2326 26.5469 38.2695 25.8784 38.7046 25.4889C39.1397 25.0993 39.8082 25.1362 40.1978 25.5713C40.5873 26.0064 40.5504 26.6749 40.1153 27.0645Z" fill="#996518"/>
<path d="M47.4903 33.8249C47.0553 34.2144 46.3867 34.1775 45.9972 33.7424C45.6076 33.3074 45.6445 32.6389 46.0796 32.2493C46.5147 31.8597 47.1832 31.8966 47.5728 32.3317C47.9623 32.7668 47.9254 33.4353 47.4903 33.8249Z" fill="#996518"/>
<path d="M35.8133 36.2832C35.3782 36.6728 34.7097 36.6359 34.3201 36.2008C33.9305 35.7657 33.9674 35.0972 34.4025 34.7076C34.8376 34.3181 35.5061 34.355 35.8957 34.7901C36.2852 35.2251 36.2483 35.8937 35.8133 36.2832Z" fill="#996518"/>
<path d="M43.9904 38.5413C43.5553 38.9309 42.8868 38.894 42.4972 38.4589C42.1077 38.0238 42.1446 37.3553 42.5797 36.9657C43.0148 36.5762 43.6833 36.6131 44.0728 37.0482C44.4624 37.4832 44.4255 38.1518 43.9904 38.5413Z" fill="#996518"/>
<path d="M37.23 43.458C36.7949 43.8475 36.1264 43.8106 35.7368 43.3755C35.3473 42.9405 35.3842 42.272 35.8193 41.8824C36.2543 41.4928 36.9228 41.5297 37.3124 41.9648C37.702 42.3999 37.6651 43.0684 37.23 43.458Z" fill="#996518"/>
<path d="M43.3758 43.458C42.9407 43.8475 42.2722 43.8106 41.8827 43.3755C41.4931 42.9405 41.53 42.272 41.9651 41.8824C42.4002 41.4928 43.0687 41.5297 43.4582 41.9648C43.8478 42.3999 43.8109 43.0684 43.3758 43.458Z" fill="#996518"/>
<path d="M32.9279 47.1455C32.4928 47.535 31.8243 47.4981 31.4347 47.063C31.0452 46.628 31.0821 45.9595 31.5172 45.5699C31.9523 45.1803 32.6208 45.2172 33.0103 45.6523C33.3999 46.0874 33.363 46.7559 32.9279 47.1455Z" fill="#996518"/>
<path d="M25.9799 46.7311C25.5448 47.1207 24.8763 47.0838 24.4868 46.6487C24.0972 46.2136 24.1341 45.5451 24.5692 45.1556C25.0043 44.766 25.6728 44.8029 26.0623 45.238C26.4519 45.6731 26.415 46.3416 25.9799 46.7311Z" fill="#996518"/>
<path d="M16.1466 35.6686C15.7115 36.0582 15.043 36.0213 14.6534 35.5862C14.2639 35.1511 14.3008 34.4826 14.7359 34.0931C15.1709 33.7035 15.8395 33.7404 16.229 34.1755C16.6186 34.6106 16.5817 35.2791 16.1466 35.6686Z" fill="#996518"/>
<path d="M25.9799 30.752C25.5448 31.1415 24.8763 31.1046 24.4868 30.6695C24.0972 30.2344 24.1341 29.5659 24.5692 29.1764C25.0043 28.7868 25.6728 28.8237 26.0623 29.2588C26.4519 29.6939 26.415 30.3624 25.9799 30.752Z" fill="#996518"/>
<path d="M47.4902 28.2936C47.0551 28.6832 46.3866 28.6463 45.997 28.2112C45.6075 27.7761 45.6444 27.1076 46.0795 26.718C46.5145 26.3285 47.1831 26.3654 47.5726 26.8005C47.9622 27.2356 47.9253 27.9041 47.4902 28.2936Z" fill="#996518"/>
<path d="M25.1937 33.2139C25.9818 34.7786 24.7178 37.0054 22.3707 38.1874C20.0235 39.3694 17.482 39.0592 16.6939 37.4944C15.9059 35.9296 17.1698 33.7029 19.517 32.5209C21.8641 31.3388 24.4057 31.6491 25.1937 33.2139Z" fill="#EEB257"/>
<path fill-rule="evenodd" clip-rule="evenodd" d="M20.9135 34.1289C21.2308 34.7291 21.0015 35.4728 20.4014 35.7901C20.0284 35.9874 19.7358 36.2362 19.5065 36.5366C19.0946 37.0762 18.3233 37.1797 17.7837 36.7678C17.2441 36.3559 17.1405 35.5846 17.5524 35.0449C18.0078 34.4483 18.5801 33.9723 19.2523 33.6169C19.8524 33.2996 20.5961 33.5288 20.9135 34.1289Z" fill="white"/>
</g>
<defs>
<filter id="filter0_d_136_95" x="0" y="0" width="63" height="63" filterUnits="userSpaceOnUse" color-interpolation-filters="sRGB">
<feFlood flood-opacity="0" result="BackgroundImageFix"/>
<feColorMatrix in="SourceAlpha" type="matrix" values="0 0 0 0 0 0 0 0 0 0 0 0 0 0 0 0 0 0 127 0" result="hardAlpha"/>
<feOffset dx="4" dy="4"/>
<feColorMatrix type="matrix" values="0 0 0 0 0 0 0 0 0 0 0 0 0 0 0 0 0 0 0.2 0"/>
<feBlend mode="normal" in2="BackgroundImageFix" result="effect1_dropShadow_136_95"/>
<feBlend mode="normal" in="SourceGraphic" in2="effect1_dropShadow_136_95" result="shape"/>
</filter>
</defs>
</svg>
