<svg width="59" height="59" viewBox="0 0 59 59" fill="none" xmlns="http://www.w3.org/2000/svg">
<g filter="url(#filter0_d_136_320)">
<path d="M30.7911 15.9179C30.7528 15.6034 30.4872 15.3643 30.1704 15.3643H28.8407C28.5192 15.3643 28.2511 15.6108 28.2165 15.9304C28.0982 17.026 27.7673 19.4795 27.0417 21.2028C26.3828 22.7675 24.4732 24.7518 22.1365 26.1399C17.5156 28.8851 14.75 31.9342 14.75 36.2601C14.75 42.7092 21.3538 47.9372 29.5 47.9372C37.6462 47.9372 44.25 42.7092 44.25 36.2601C44.25 31.9016 40.9084 28.7644 36.7636 26.0947C34.4167 24.583 32.6121 22.8351 31.9583 21.2028C31.2867 19.5259 30.9255 17.0199 30.7911 15.9179Z" fill="#E289B0"/>
<path fill-rule="evenodd" clip-rule="evenodd" d="M28.8409 14.1353H30.1706C31.1196 14.1353 31.8993 14.849 32.0114 15.7693C32.1469 16.8804 32.4951 19.2367 33.0995 20.746C33.6076 22.0144 35.1423 23.5884 37.4293 25.0615C41.5899 27.7414 45.4793 31.2002 45.4793 36.2603C45.4793 43.6404 38.042 49.1665 29.5002 49.1665C20.9583 49.1665 13.521 43.6404 13.521 36.2603C13.521 31.2708 16.768 27.8998 21.5089 25.0833C23.7183 23.7707 25.3892 21.9605 25.909 20.726C26.5574 19.186 26.8761 16.8957 26.9947 15.7986C27.0949 14.8706 27.8759 14.1353 28.8409 14.1353ZM30.1706 15.3644C30.4874 15.3644 30.753 15.6036 30.7913 15.9181C30.9256 17.0201 31.2869 19.5261 31.9585 21.203C32.6123 22.8353 34.4168 24.5832 36.7638 26.0948C40.9086 28.7646 44.2502 31.9018 44.2502 36.2603C44.2502 42.7093 37.6464 47.9373 29.5002 47.9373C21.354 47.9373 14.7502 42.7093 14.7502 36.2603C14.7502 31.9343 17.5158 28.8853 22.1367 26.1401C24.4733 24.7519 26.383 22.7677 27.0418 21.203C27.7674 19.4797 28.0984 17.0261 28.2167 15.9306C28.2512 15.611 28.5194 15.3644 28.8409 15.3644H30.1706Z" fill="#9D225D"/>
<path d="M25.3073 28.6501C26.7311 30.1063 25.9879 33.1417 23.6474 35.43C21.307 37.7182 18.2555 38.3927 16.8318 36.9365C15.4081 35.4803 16.1512 32.4448 18.4917 30.1566C20.8321 27.8683 23.8836 27.1938 25.3073 28.6501Z" fill="#FFA7CF"/>
<path fill-rule="evenodd" clip-rule="evenodd" d="M28.7241 15.3755C28.4565 15.4267 28.2469 15.6506 28.2167 15.9306C28.1764 16.3039 28.1114 16.8347 28.0145 17.4406C28.3084 16.6917 28.5483 15.9588 28.7241 15.3755ZM18.6738 44.191C20.5171 45.3024 22.6745 46.111 25.0357 46.496C33.0757 47.8068 40.4347 43.7096 41.4725 37.3446C42.1738 33.0429 39.3806 29.4089 35.7194 26.107C34.0654 24.6153 32.7763 23.0307 32.1284 21.5794C32.8915 23.1013 34.5963 24.6988 36.7637 26.0949C40.9086 28.7646 44.2502 31.9018 44.2502 36.2603C44.2502 42.7094 37.6464 47.9374 29.5002 47.9374C25.2214 47.9374 21.3681 46.495 18.6738 44.191Z" fill="#C7638F"/>
<path d="M30.7292 35.6455C30.7292 41.7552 30.454 46.708 30.1146 46.708C29.7752 46.708 29.5 41.7552 29.5 35.6455C29.5 29.5359 29.7752 24.583 30.1146 24.583C30.454 24.583 30.7292 29.5359 30.7292 35.6455Z" fill="#C54C82"/>
<path d="M40.5625 35.3382C40.5625 40.5993 35.3873 44.8643 35.0489 44.8643C34.7106 44.8643 39.3373 40.5993 39.3373 35.3382C39.3373 30.0771 34.7106 25.8122 35.0489 25.8122C35.3873 25.8122 40.5625 30.0771 40.5625 35.3382Z" fill="#C54C82"/>
<path d="M18.4375 35.3382C18.4375 40.5993 23.6127 44.8643 23.9511 44.8643C24.2894 44.8643 19.6627 40.5993 19.6627 35.3382C19.6627 30.0771 24.2894 25.8122 23.9511 25.8122C23.6127 25.8122 18.4375 30.0771 18.4375 35.3382Z" fill="#C54C82"/>
<path d="M35.6458 35.9528C35.6458 41.8927 32.7311 46.708 32.5808 46.708C32.4304 46.708 33.8721 41.8927 33.8721 35.9528C33.8721 30.0129 32.4304 25.1976 32.5808 25.1976C32.7311 25.1976 35.6458 30.0129 35.6458 35.9528Z" fill="#C54C82"/>
<path d="M23.9688 35.9528C23.9688 41.8927 26.8834 46.708 27.0338 46.708C27.1842 46.708 25.7425 41.8927 25.7425 35.9528C25.7425 30.0129 27.1842 25.1976 27.0338 25.1976C26.8834 25.1976 23.9688 30.0129 23.9688 35.9528Z" fill="#C54C82"/>
<path d="M40.4273 37.4948C40.183 37.9663 39.6028 38.1505 39.1312 37.9062C38.6597 37.662 38.4755 37.0817 38.7198 36.6102C38.9641 36.1386 39.5444 35.9544 40.0159 36.1987C40.4874 36.443 40.6716 37.0233 40.4273 37.4948Z" fill="#A3446E"/>
<path d="M42.4304 40.3882C42.1861 40.8597 41.6058 41.0439 41.1343 40.7996C40.6627 40.5553 40.4785 39.975 40.7228 39.5035C40.9671 39.032 41.5474 38.8478 42.0189 39.0921C42.4904 39.3364 42.6746 39.9166 42.4304 40.3882Z" fill="#A3446E"/>
<path d="M43.0534 36.9964C42.8702 37.3501 42.435 37.4882 42.0814 37.305C41.7277 37.1218 41.5896 36.6866 41.7728 36.3329C41.956 35.9793 42.3912 35.8411 42.7449 36.0243C43.0985 36.2076 43.2367 36.6428 43.0534 36.9964Z" fill="#A3446E"/>
<path d="M40.4244 43.2283C40.1801 43.6998 39.5998 43.884 39.1283 43.6397C38.6567 43.3954 38.4725 42.8152 38.7168 42.3436C38.9611 41.8721 39.5414 41.6879 40.0129 41.9322C40.4844 42.1765 40.6686 42.7568 40.4244 43.2283Z" fill="#A3446E"/>
<path d="M39.0241 40.2872C38.7798 40.7587 38.1995 40.9429 37.728 40.6986C37.2564 40.4543 37.0722 39.8741 37.3165 39.4025C37.5608 38.931 38.1411 38.7468 38.6126 38.9911C39.0841 39.2354 39.2683 39.8157 39.0241 40.2872Z" fill="#A3446E"/>
<path d="M37.1083 45.2024C36.8641 45.6739 36.2838 45.8581 35.8122 45.6138C35.3407 45.3695 35.1565 44.7893 35.4008 44.3177C35.6451 43.8462 36.2254 43.662 36.6969 43.9063C37.1684 44.1506 37.3526 44.7309 37.1083 45.2024Z" fill="#A3446E"/>
<path d="M36.2647 42.2698C36.0204 42.7414 35.4401 42.9256 34.9686 42.6813C34.4971 42.437 34.3129 41.8567 34.5572 41.3852C34.8015 40.9137 35.3817 40.7295 35.8533 40.9737C36.3248 41.218 36.509 41.7983 36.2647 42.2698Z" fill="#A3446E"/>
<path d="M33.4778 46.2967C33.2946 46.6504 32.8594 46.7885 32.5058 46.6053C32.1521 46.4221 32.014 45.9869 32.1972 45.6332C32.3804 45.2796 32.8156 45.1414 33.1693 45.3247C33.5229 45.5079 33.6611 45.9431 33.4778 46.2967Z" fill="#A3446E"/>
<path fill-rule="evenodd" clip-rule="evenodd" d="M20.6916 31.3906C21.1832 31.8588 21.2022 32.6369 20.734 33.1284C20.3768 33.5035 20.1305 33.9105 19.979 34.3549C19.7599 34.9975 19.0615 35.3407 18.4189 35.1217C17.7764 34.9026 17.4331 34.2041 17.6522 33.5616C17.924 32.7644 18.3633 32.0531 18.9539 31.433C19.422 30.9414 20.2001 30.9225 20.6916 31.3906Z" fill="white"/>
</g>
<defs>
<filter id="filter0_d_136_320" x="0" y="0" width="63" height="63" filterUnits="userSpaceOnUse" color-interpolation-filters="sRGB">
<feFlood flood-opacity="0" result="BackgroundImageFix"/>
<feColorMatrix in="SourceAlpha" type="matrix" values="0 0 0 0 0 0 0 0 0 0 0 0 0 0 0 0 0 0 127 0" result="hardAlpha"/>
<feOffset dx="4" dy="4"/>
<feColorMatrix type="matrix" values="0 0 0 0 0 0 0 0 0 0 0 0 0 0 0 0 0 0 0.2 0"/>
<feBlend mode="normal" in2="BackgroundImageFix" result="effect1_dropShadow_136_320"/>
<feBlend mode="normal" in="SourceGraphic" in2="effect1_dropShadow_136_320" result="shape"/>
</filter>
</defs>
</svg>
