<svg width="59" height="59" viewBox="0 0 59 59" fill="none" xmlns="http://www.w3.org/2000/svg">
<g filter="url(#filter0_d_136_62)">
<path d="M30.3018 19.2217C29.5475 13.667 25.0792 14.5606 22.3982 11.5817C23.1532 13.4218 27.79 18.4835 30.3018 19.2217Z" fill="#73B40D"/>
<path fill-rule="evenodd" clip-rule="evenodd" d="M31.103 20.1541C31.419 19.8825 31.5759 19.4694 31.5198 19.0565C31.3079 17.4955 30.8208 16.3001 30.1034 15.3587C29.3914 14.4244 28.5142 13.8221 27.661 13.3568C27.238 13.1262 26.8055 12.9213 26.4009 12.7312C26.37 12.7167 26.3393 12.7023 26.3087 12.6879C25.9295 12.5099 25.575 12.3435 25.2273 12.1618C24.4846 11.7738 23.8449 11.3519 23.3119 10.7597C22.912 10.3153 22.2504 10.2231 21.7442 10.5412C21.2381 10.8593 21.0342 11.4955 21.2611 12.0485C21.517 12.6722 22.0368 13.4435 22.6287 14.2034C23.2414 14.99 24.0026 15.8543 24.8165 16.6787C25.6294 17.502 26.5121 18.3031 27.3702 18.9545C28.2039 19.5874 29.1086 20.1524 29.9553 20.4012C30.355 20.5187 30.7871 20.4256 31.103 20.1541ZM29.9701 17.74C30.1141 18.1765 30.2265 18.667 30.3019 19.2219C29.8908 19.1011 29.4228 18.8645 28.9242 18.5452C27.5015 17.6339 25.8296 16.049 24.5206 14.5589C23.4854 13.3805 22.6771 12.2615 22.3983 11.5819C23.2403 12.5176 24.2587 13.0712 25.2829 13.5626C25.4494 13.6424 25.6161 13.7207 25.7822 13.7986C27.5223 14.6155 29.199 15.4026 29.9701 17.74Z" fill="#436C02"/>
<path d="M30.7406 21.009C31.4949 15.4543 36.1011 12.7733 39.08 13.3691C34.6116 13.9649 35.8032 19.6248 30.7406 21.009Z" fill="#73B40D"/>
<path fill-rule="evenodd" clip-rule="evenodd" d="M29.9307 21.9338C29.6204 21.662 29.4672 21.2526 29.5227 20.8439C30.3546 14.7175 35.5238 11.4046 39.3211 12.1641C39.9104 12.2819 40.328 12.8086 40.3085 13.4092C40.2891 14.0098 39.8381 14.5083 39.2425 14.5877C37.7044 14.7928 37.1453 15.7462 36.2159 17.4755L36.2047 17.4963C35.3117 19.1581 34.1301 21.3568 31.0649 22.1949C30.667 22.3037 30.241 22.2056 29.9307 21.9338ZM31.0229 19.6196C30.9019 20.0607 30.8066 20.524 30.7407 21.0092C31.2448 20.8714 31.6869 20.6912 32.0787 20.4778C33.6743 19.6088 34.4367 18.1898 35.1602 16.8434C35.5221 16.1698 35.8742 15.5144 36.3161 14.9551C36.9524 14.1496 37.7747 13.5434 39.08 13.3693C38.0276 13.1589 36.7721 13.3573 35.5551 13.947C33.6282 14.8807 31.7978 16.7951 31.0229 19.6196Z" fill="#436C02"/>
<path fill-rule="evenodd" clip-rule="evenodd" d="M30.7394 10.9485C31.4183 10.9485 31.9686 11.4988 31.9686 12.1777V21.1143C31.9686 21.7932 31.4183 22.3435 30.7394 22.3435C30.0606 22.3435 29.5103 21.7932 29.5103 21.1143V12.1777C29.5103 11.4988 30.0606 10.9485 30.7394 10.9485Z" fill="#457003"/>
<path d="M25.3773 20.2209C18.4846 19.6331 11.8248 25.2331 12.2702 32.1364C12.9852 44.7669 23.5899 49.2421 29.8456 49.2421C35.8033 49.2421 46.2295 45.0052 47.421 32.1364C47.8664 25.2331 41.2066 19.6331 34.3139 20.2209C32.4961 20.3759 30.4812 21.4711 29.8456 21.5843C29.21 21.4711 27.1951 20.3759 25.3773 20.2209Z" fill="#FF3A1A"/>
<path fill-rule="evenodd" clip-rule="evenodd" d="M48.6466 32.2326L48.645 32.2496C47.3779 45.9353 36.234 50.4712 29.8456 50.4712C26.4661 50.4712 21.984 49.2743 18.2328 46.4015C14.4422 43.4986 11.4232 38.8998 11.0433 32.2106C10.5451 24.4368 17.9694 18.3554 25.4817 18.9961C26.5687 19.0887 27.6591 19.4535 28.4907 19.7689C28.7734 19.8761 29.0515 19.9878 29.2886 20.083C29.3976 20.1268 29.498 20.1671 29.5861 20.2018C29.6861 20.2413 29.7719 20.2743 29.8456 20.3015C29.9194 20.2743 30.0052 20.2413 30.1052 20.2018C30.1933 20.1671 30.2937 20.1268 30.4027 20.083C30.6397 19.9878 30.9178 19.8761 31.2006 19.7689C32.0321 19.4535 33.1226 19.0887 34.2095 18.9961C41.7234 18.3553 49.1494 24.4394 48.6477 32.2155L48.6466 32.2326ZM29.8456 21.5842C29.6346 21.5466 29.2714 21.4007 28.8138 21.2169C27.8935 20.8473 26.5914 20.3243 25.3773 20.2208C18.4847 19.633 11.8249 25.233 12.2702 32.1363C12.9852 44.7668 23.5899 49.242 29.8456 49.242C35.8034 49.242 46.2296 45.0051 47.4211 32.1363C47.8665 25.233 41.2066 19.633 34.314 20.2208C33.0998 20.3243 31.7977 20.8473 30.8775 21.2169C30.4199 21.4007 30.0567 21.5466 29.8456 21.5842Z" fill="#A20505"/>
<path fill-rule="evenodd" clip-rule="evenodd" d="M15.0918 24.3413C17.5966 21.5608 21.4493 19.8859 25.3775 20.2209C26.5917 20.3244 27.8938 20.8474 28.814 21.217C29.2716 21.4008 29.6348 21.5467 29.8459 21.5843C30.0569 21.5467 30.4201 21.4008 30.8777 21.217C31.798 20.8474 33.1001 20.3244 34.3142 20.2209C38.4713 19.8664 42.5437 21.7627 45.0237 24.8383C41.7905 23.1822 37.901 22.2981 34.3142 22.604C33.1001 22.7075 31.798 23.2305 30.8777 23.6001C30.4201 23.7839 30.057 23.9298 29.8459 23.9673C29.6348 23.9298 29.2716 23.7839 28.8141 23.6001C27.8938 23.2305 26.5917 22.7075 25.3776 22.604C21.6696 22.2878 18.0745 22.976 15.0918 24.3413Z" fill="#E83214"/>
<path fill-rule="evenodd" clip-rule="evenodd" d="M17.9746 44.5942C21.1768 46.603 24.7335 47.4547 27.4625 47.4547C33.4202 47.4547 43.8464 43.2178 45.0379 30.349C45.2503 27.0576 43.8475 24.0625 41.5743 21.8931C45.1869 23.9929 47.7003 27.8085 47.421 32.1363C46.2295 45.0051 35.8033 49.242 29.8456 49.242C26.4138 49.242 21.6733 47.8953 17.9746 44.5942Z" fill="#E83214"/>
<path d="M30.7393 18.8767C34.9097 15.1564 36.1013 19.3269 39.9738 19.9227C38.0173 20.2802 32.7164 20.5929 30.7393 18.8767Z" fill="#8ED918"/>
<path fill-rule="evenodd" clip-rule="evenodd" d="M29.5103 18.8851C29.5079 18.5319 29.6576 18.1947 29.9212 17.9595C31.0589 16.9446 32.1241 16.3479 33.2006 16.1736C34.3056 15.9946 35.2359 16.2905 36.0184 16.682C36.4009 16.8734 36.7671 17.0974 37.1023 17.3073C37.174 17.3522 37.2441 17.3963 37.3131 17.4398C37.5803 17.608 37.8318 17.7663 38.0985 17.9204C38.7531 18.2984 39.4033 18.5913 40.1609 18.7079C40.754 18.7991 41.1946 19.3054 41.203 19.9055C41.2114 20.5055 40.7853 21.024 40.1949 21.1319C39.1242 21.3276 37.2149 21.5015 35.3025 21.405C34.343 21.3566 33.3467 21.2385 32.4361 21.0052C31.5415 20.7759 30.6319 20.4111 29.9337 19.805C29.6669 19.5735 29.5127 19.2383 29.5103 18.8851ZM31.7385 18.0943C31.4246 18.3031 31.0927 18.5616 30.7394 18.8768C31.0436 19.1408 31.4264 19.3568 31.8635 19.532C33.3138 20.1132 35.3626 20.2455 37.1236 20.1926C38.2826 20.1578 39.3169 20.0428 39.974 19.9227C38.98 19.7698 38.1626 19.3814 37.4261 18.9513C37.1579 18.7947 36.9004 18.6325 36.649 18.4742C35.1294 17.5172 33.8331 16.7008 31.7385 18.0943Z" fill="#436C02"/>
<path d="M29.8453 19.3269C27.4623 16.348 24.7812 18.1353 19.7171 18.4332C21.8023 19.6248 27.5241 20.5379 29.8453 19.3269Z" fill="#8ED918"/>
<path fill-rule="evenodd" clip-rule="evenodd" d="M31.0483 19.5803C31.1241 19.2207 31.035 18.8461 30.8054 18.5591C30.0952 17.6713 29.3062 17.0731 28.397 16.7361C27.5043 16.4053 26.593 16.3629 25.7013 16.4251C24.9509 16.4775 24.1357 16.612 23.3089 16.7485C23.1741 16.7708 23.0389 16.7931 22.9037 16.8151C21.9136 16.9763 20.8466 17.1355 19.6452 17.2062C19.1022 17.2381 18.6447 17.6232 18.5206 18.1528C18.3965 18.6824 18.6353 19.2306 19.1075 19.5005C20.361 20.2167 22.5044 20.7687 24.5538 21.0023C25.6004 21.1216 26.6776 21.1646 27.6675 21.0916C28.6369 21.0201 29.6205 20.8308 30.4141 20.4167C30.7399 20.2467 30.9726 19.9399 31.0483 19.5803ZM28.8964 18.393C29.2209 18.6329 29.5358 18.9397 29.8456 19.327C29.4919 19.5115 29.0593 19.6467 28.5726 19.7391C26.826 20.0708 24.383 19.8514 22.3946 19.3827C21.3008 19.1249 20.3446 18.7916 19.7174 18.4332C20.7157 18.3745 21.6215 18.2579 22.4506 18.1313C22.821 18.0748 23.1761 18.0163 23.5173 17.96C25.7829 17.5866 27.437 17.3139 28.8964 18.393Z" fill="#436C02"/>
<path d="M25.6487 23.8786C26.8731 25.7006 25.6502 28.6665 22.9172 30.5031C20.1843 32.3398 16.9762 32.3517 15.7517 30.5297C14.5273 28.7077 15.7502 25.7418 18.4832 23.9051C21.2161 22.0685 24.4243 22.0566 25.6487 23.8786Z" fill="#FE7B7B"/>
<path fill-rule="evenodd" clip-rule="evenodd" d="M20.5736 25.3254C20.9721 25.875 20.8496 26.6436 20.3 27.0421C19.8978 27.3338 19.5951 27.6744 19.3753 28.0665C19.0433 28.6586 18.2942 28.8695 17.7021 28.5375C17.1099 28.2055 16.899 27.4563 17.231 26.8642C17.6331 26.1471 18.1807 25.5422 18.8569 25.0519C19.4065 24.6534 20.1751 24.7758 20.5736 25.3254Z" fill="white"/>
<path d="M40.638 37.0559C40.2446 37.5899 39.4929 37.7038 38.959 37.3104C38.4251 36.9171 38.3111 36.1654 38.7045 35.6314C39.0979 35.0975 39.8496 34.9836 40.3835 35.3769C40.9174 35.7703 41.0313 36.522 40.638 37.0559Z" fill="#BD1106"/>
<path d="M42.5439 41.0158C42.1505 41.5497 41.3988 41.6636 40.8649 41.2703C40.3309 40.8769 40.217 40.1252 40.6104 39.5913C41.0037 39.0573 41.7554 38.9434 42.2894 39.3368C42.8233 39.7301 42.9372 40.4818 42.5439 41.0158Z" fill="#BD1106"/>
<path d="M43.9745 36.9538C43.6795 37.3543 43.1157 37.4397 42.7153 37.1447C42.3149 36.8497 42.2294 36.2859 42.5244 35.8855C42.8194 35.485 43.3832 35.3996 43.7837 35.6946C44.1841 35.9896 44.2696 36.5534 43.9745 36.9538Z" fill="#BD1106"/>
<path d="M39.5152 44.1274C39.1219 44.6613 38.3702 44.7752 37.8362 44.3819C37.3023 43.9885 37.1884 43.2368 37.5817 42.7029C37.9751 42.169 38.7268 42.055 39.2607 42.4484C39.7946 42.8417 39.9086 43.5935 39.5152 44.1274Z" fill="#BD1106"/>
<path d="M38.3621 40.2262C37.9687 40.7602 37.217 40.8741 36.6831 40.4807C36.1492 40.0874 36.0352 39.3357 36.4286 38.8017C36.8219 38.2678 37.5737 38.1539 38.1076 38.5472C38.6415 38.9406 38.7554 39.6923 38.3621 40.2262Z" fill="#BD1106"/>
<path d="M35.0396 45.9151C34.6463 46.449 33.8946 46.5629 33.3606 46.1696C32.8267 45.7762 32.7128 45.0245 33.1061 44.4906C33.4995 43.9567 34.2512 43.8427 34.7851 44.2361C35.319 44.6294 35.433 45.3811 35.0396 45.9151Z" fill="#BD1106"/>
<path d="M34.5716 42.1331C34.1782 42.6671 33.4265 42.781 32.8926 42.3876C32.3586 41.9943 32.2447 41.2426 32.6381 40.7086C33.0314 40.1747 33.7831 40.0608 34.3171 40.4541C34.851 40.8475 34.9649 41.5992 34.5716 42.1331Z" fill="#BD1106"/>
<path d="M30.3479 46.5561C30.0529 46.9565 29.4891 47.042 29.0886 46.747C28.6882 46.4519 28.6027 45.8882 28.8978 45.4877C29.1928 45.0873 29.7566 45.0018 30.157 45.2968C30.5574 45.5919 30.6429 46.1556 30.3479 46.5561Z" fill="#BD1106"/>
</g>
<defs>
<filter id="filter0_d_136_62" x="0" y="0" width="63" height="63" filterUnits="userSpaceOnUse" color-interpolation-filters="sRGB">
<feFlood flood-opacity="0" result="BackgroundImageFix"/>
<feColorMatrix in="SourceAlpha" type="matrix" values="0 0 0 0 0 0 0 0 0 0 0 0 0 0 0 0 0 0 127 0" result="hardAlpha"/>
<feOffset dx="4" dy="4"/>
<feColorMatrix type="matrix" values="0 0 0 0 0 0 0 0 0 0 0 0 0 0 0 0 0 0 0.2 0"/>
<feBlend mode="normal" in2="BackgroundImageFix" result="effect1_dropShadow_136_62"/>
<feBlend mode="normal" in="SourceGraphic" in2="effect1_dropShadow_136_62" result="shape"/>
</filter>
</defs>
</svg>
