<svg width="59" height="59" viewBox="0 0 59 59" fill="none" xmlns="http://www.w3.org/2000/svg">
<g filter="url(#filter0_d_136_453)">
<path d="M38.104 31.9582C38.104 42.1409 35.0682 45.479 29.8071 45.479C24.546 45.479 21.5103 42.1409 21.5103 31.9582C21.5103 21.7754 25.8123 8.604 29.8071 8.604C33.8019 8.604 38.104 21.7754 38.104 31.9582Z" fill="#FFD12F"/>
<path fill-rule="evenodd" clip-rule="evenodd" d="M36.9487 43.223C35.2473 45.7541 32.7343 46.7083 29.8073 46.7083C26.8803 46.7083 24.3673 45.7541 22.6658 43.223C21.0406 40.8053 20.2812 37.1201 20.2812 31.9583C20.2812 26.7194 21.3832 20.7456 22.9988 16.0619C23.8054 13.7236 24.7614 11.6434 25.815 10.1216C26.3418 9.36081 26.9226 8.696 27.56 8.21148C28.1989 7.72577 28.9583 7.375 29.8073 7.375C30.6562 7.375 31.4156 7.72577 32.0546 8.21148C32.692 8.696 33.2728 9.36081 33.7996 10.1216C34.8532 11.6434 35.8092 13.7236 36.6158 16.0619C38.2313 20.7456 39.3333 26.7194 39.3333 31.9583C39.3333 37.1201 38.574 40.8053 36.9487 43.223ZM29.8073 45.4792C35.0684 45.4792 38.1042 42.1411 38.1042 31.9583C38.1042 21.7756 33.8021 8.60417 29.8073 8.60417C25.8125 8.60417 21.5104 21.7756 21.5104 31.9583C21.5104 42.1411 24.5462 45.4792 29.8073 45.4792Z" fill="#EC9616"/>
<path d="M26.5793 25.8468C28.0978 25.874 29.3582 24.2524 29.3944 22.225C29.4307 20.1975 30.1671 10.5439 28.6486 10.5168C27.1302 10.4896 23.9317 20.0992 23.8955 22.1267C23.8593 24.1541 25.0609 25.8197 26.5793 25.8468Z" fill="#FFE071"/>
<path fill-rule="evenodd" clip-rule="evenodd" d="M25.8228 44.5578C29.1637 43.7432 31.5355 40.3103 32.8483 32.6791C34.4432 23.4078 32.8518 10.9999 29.4958 8.63032C29.5997 8.61287 29.7036 8.604 29.8072 8.604C33.802 8.604 38.1041 21.7754 38.1041 31.9582C38.1041 42.1409 35.0683 45.479 29.8072 45.479C28.2867 45.479 26.952 45.2002 25.8228 44.5578Z" fill="#F1B826"/>
<path d="M26.431 20.3645C26.431 20.9376 25.9665 21.4022 25.3934 21.4022C24.8203 21.4022 24.3557 20.9376 24.3557 20.3645C24.3557 19.7914 24.8203 19.3268 25.3934 19.3268C25.9665 19.3268 26.431 19.7914 26.431 20.3645Z" fill="#FFF730"/>
<path d="M29.544 20.3645C29.544 20.9376 29.0794 21.4022 28.5063 21.4022C27.9332 21.4022 27.4687 20.9376 27.4687 20.3645C27.4687 19.7914 27.9332 19.3268 28.5063 19.3268C29.0794 19.3268 29.544 19.7914 29.544 20.3645Z" fill="#FFF730"/>
<path d="M32.6077 20.3645C32.6077 20.9376 32.1431 21.4022 31.57 21.4022C30.9969 21.4022 30.5323 20.9376 30.5323 20.3645C30.5323 19.7914 30.9969 19.3268 31.57 19.3268C32.1431 19.3268 32.6077 19.7914 32.6077 20.3645Z" fill="#FFF730"/>
<path d="M35.6712 20.3645C35.6712 20.9376 35.2066 21.4022 34.6335 21.4022C34.0604 21.4022 33.5959 20.9376 33.5959 20.3645C33.5959 19.7914 34.0604 19.3268 34.6335 19.3268C35.2066 19.3268 35.6712 19.7914 35.6712 20.3645Z" fill="#FFF730"/>
<path d="M34.683 17.2515C34.683 17.8246 34.2184 18.2892 33.6453 18.2892C33.0722 18.2892 32.6077 17.8246 32.6077 17.2515C32.6077 16.6784 33.0722 16.2138 33.6453 16.2138C34.2184 16.2138 34.683 16.6784 34.683 17.2515Z" fill="#FFF730"/>
<path d="M31.0511 17.2515C31.0511 17.8246 30.5865 18.2892 30.0134 18.2892C29.4404 18.2892 28.9758 17.8246 28.9758 17.2515C28.9758 16.6784 29.4404 16.2138 30.0134 16.2138C30.5865 16.2138 31.0511 16.6784 31.0511 17.2515Z" fill="#FFF730"/>
<path d="M27.4192 17.2515C27.4192 17.8246 26.9547 18.2892 26.3816 18.2892C25.8085 18.2892 25.3439 17.8246 25.3439 17.2515C25.3439 16.6784 25.8085 16.2138 26.3816 16.2138C26.9547 16.2138 27.4192 16.6784 27.4192 17.2515Z" fill="#FFF730"/>
<path d="M28.9758 14.6572C28.9758 15.2303 28.5112 15.6949 27.9381 15.6949C27.365 15.6949 26.9004 15.2303 26.9004 14.6572C26.9004 14.0841 27.365 13.6195 27.9381 13.6195C28.5112 13.6195 28.9758 14.0841 28.9758 14.6572Z" fill="#FFF730"/>
<path d="M33.1265 14.6572C33.1265 15.2303 32.6619 15.6949 32.0888 15.6949C31.5157 15.6949 31.0511 15.2303 31.0511 14.6572C31.0511 14.0841 31.5157 13.6195 32.0888 13.6195C32.6619 13.6195 33.1265 14.0841 33.1265 14.6572Z" fill="#FFF730"/>
<path d="M31.0511 12.0631C31.0511 12.6362 30.5865 13.1008 30.0134 13.1008C29.4404 13.1008 28.9758 12.6362 28.9758 12.0631C28.9758 11.49 29.4404 11.0254 30.0134 11.0254C30.5865 11.0254 31.0511 11.49 31.0511 12.0631Z" fill="#FFF730"/>
<path d="M27.9875 23.527C27.9875 24.1001 27.5229 24.5647 26.9498 24.5647C26.3767 24.5647 25.9121 24.1001 25.9121 23.527C25.9121 22.9539 26.3767 22.4893 26.9498 22.4893C27.5229 22.4893 27.9875 22.9539 27.9875 23.527Z" fill="#FFF730"/>
<path d="M31.0511 23.4776C31.0511 24.0507 30.5865 24.5152 30.0134 24.5152C29.4404 24.5152 28.9758 24.0507 28.9758 23.4776C28.9758 22.9045 29.4404 22.4399 30.0134 22.4399C30.5865 22.4399 31.0511 22.9045 31.0511 23.4776Z" fill="#FFF730"/>
<path d="M35.2019 23.4776C35.2019 24.0507 34.7373 24.5152 34.1642 24.5152C33.5911 24.5152 33.1266 24.0507 33.1266 23.4776C33.1266 22.9045 33.5911 22.4399 34.1642 22.4399C34.7373 22.4399 35.2019 22.9045 35.2019 23.4776Z" fill="#FFF730"/>
<path d="M37.2279 26.5906C37.2279 27.1637 36.7633 27.6283 36.1902 27.6283C35.6171 27.6283 35.1526 27.1637 35.1526 26.5906C35.1526 26.0175 35.6171 25.5529 36.1902 25.5529C36.7633 25.5529 37.2279 26.0175 37.2279 26.5906Z" fill="#FFF730"/>
<path d="M33.1265 26.5906C33.1265 27.1637 32.6619 27.6283 32.0888 27.6283C31.5157 27.6283 31.0511 27.1637 31.0511 26.5906C31.0511 26.0175 31.5157 25.5529 32.0888 25.5529C32.6619 25.5529 33.1265 26.0175 33.1265 26.5906Z" fill="#FFF730"/>
<path d="M28.4569 26.5906C28.4569 27.1637 27.9923 27.6283 27.4192 27.6283C26.8461 27.6283 26.3815 27.1637 26.3815 26.5906C26.3815 26.0175 26.8461 25.5529 27.4192 25.5529C27.9923 25.5529 28.4569 26.0175 28.4569 26.5906Z" fill="#FFF730"/>
<path d="M25.3439 25.0341C25.3439 25.6072 24.8793 26.0717 24.3062 26.0717C23.7331 26.0717 23.2686 25.6072 23.2686 25.0341C23.2686 24.461 23.7331 23.9964 24.3062 23.9964C24.8793 23.9964 25.3439 24.461 25.3439 25.0341Z" fill="#FFF730"/>
<path d="M25.8134 29.1354C25.8134 29.7085 25.3488 30.1731 24.7757 30.1731C24.2026 30.1731 23.738 29.7085 23.738 29.1354C23.738 28.5623 24.2026 28.0977 24.7757 28.0977C25.3488 28.0977 25.8134 28.5623 25.8134 29.1354Z" fill="#FFF730"/>
<path d="M29.3463 29.6543C29.3463 30.2274 28.8817 30.692 28.3086 30.692C27.7355 30.692 27.271 30.2274 27.271 29.6543C27.271 29.0812 27.7355 28.6166 28.3086 28.6166C28.8817 28.6166 29.3463 29.0812 29.3463 29.6543Z" fill="#FFF730"/>
<path d="M33.4478 29.7037C33.4478 30.2768 32.9832 30.7414 32.4101 30.7414C31.837 30.7414 31.3724 30.2768 31.3724 29.7037C31.3724 29.1306 31.837 28.666 32.4101 28.666C32.9832 28.666 33.4478 29.1306 33.4478 29.7037Z" fill="#FFF730"/>
<path d="M37.0302 30.8155C37.0302 31.3886 36.5656 31.8531 35.9925 31.8531C35.4194 31.8531 34.9549 31.3886 34.9549 30.8155C34.9549 30.2424 35.4194 29.7778 35.9925 29.7778C36.5656 29.7778 37.0302 30.2424 37.0302 30.8155Z" fill="#FFF730"/>
<path d="M30.7794 33.6568C30.7794 34.2299 30.3148 34.6944 29.7417 34.6944C29.1686 34.6944 28.704 34.2299 28.704 33.6568C28.704 33.0837 29.1686 32.6191 29.7417 32.6191C30.3148 32.6191 30.7794 33.0837 30.7794 33.6568Z" fill="#FFF730"/>
<path d="M31.3476 37.0663C31.3476 37.6394 30.883 38.104 30.3099 38.104C29.7368 38.104 29.2722 37.6394 29.2722 37.0663C29.2722 36.4932 29.7368 36.0286 30.3099 36.0286C30.883 36.0286 31.3476 36.4932 31.3476 37.0663Z" fill="#FFF730"/>
<path d="M34.0655 33.2861C34.0655 33.8592 33.6009 34.3238 33.0278 34.3238C32.4547 34.3238 31.9901 33.8592 31.9901 33.2861C31.9901 32.713 32.4547 32.2484 33.0278 32.2484C33.6009 32.2484 34.0655 32.713 34.0655 33.2861Z" fill="#FFF730"/>
<path d="M27.8887 33.3356C27.8887 33.9087 27.4241 34.3732 26.851 34.3732C26.2779 34.3732 25.8133 33.9087 25.8133 33.3356C25.8133 32.7625 26.2779 32.2979 26.851 32.2979C27.4241 32.2979 27.8887 32.7625 27.8887 33.3356Z" fill="#FFF730"/>
<path fill-rule="evenodd" clip-rule="evenodd" d="M28.8317 11.0926C29.4119 11.4451 29.5965 12.2011 29.244 12.7813C28.9751 13.224 28.8214 13.6742 28.7682 14.1407C28.6913 14.8152 28.0822 15.2996 27.4077 15.2227C26.7332 15.1458 26.2488 14.5367 26.3257 13.8622C26.4211 13.0254 26.6984 12.2368 27.143 11.5049C27.4955 10.9247 28.2515 10.7401 28.8317 11.0926Z" fill="white"/>
<path d="M31.3436 39.9479C31.3436 40.6268 30.7933 41.1771 30.1144 41.1771C29.4356 41.1771 28.8853 40.6268 28.8853 39.9479C28.8853 39.2691 29.4356 38.7188 30.1144 38.7188C30.7933 38.7188 31.3436 39.2691 31.3436 39.9479Z" fill="#F3D157"/>
<path d="M39.5921 42.8541C37.5219 48.6989 32.0015 50.3173 29.5 50.3958C29.7588 47.8819 29.1414 41.7897 32.6607 36.322C36.18 30.8542 42.5249 30.9131 44.25 31.7772C42.4386 32.9556 42.1798 35.5481 39.5921 42.8541Z" fill="#76C611"/>
<path fill-rule="evenodd" clip-rule="evenodd" d="M28.6006 51.2337C28.359 50.9741 28.2412 50.6229 28.2775 50.2701C28.3178 49.8778 28.3317 49.3444 28.3484 48.6998C28.4253 45.7348 28.5631 40.4175 31.6273 35.6569C33.5842 32.6165 36.3395 31.1059 38.8301 30.4829C40.0705 30.1726 41.2552 30.0792 42.2637 30.1262C43.2435 30.1719 44.155 30.355 44.8007 30.6784C45.1945 30.8757 45.4527 31.2686 45.4774 31.7084C45.5021 32.1481 45.2897 32.5675 44.9204 32.8077C44.3832 33.1572 43.9764 33.7452 43.369 35.434C43.115 36.14 42.8434 36.9824 42.5088 38.0203C42.4501 38.2024 42.3895 38.3905 42.3267 38.5849C41.9089 39.878 41.4034 41.4223 40.7509 43.2647C38.4501 49.7605 32.3332 51.5368 29.5388 51.6245C29.1843 51.6357 28.8423 51.4932 28.6006 51.2337ZM29.5704 49.163C29.5763 48.9824 29.5817 48.7935 29.5874 48.5968C29.6739 45.5815 29.8126 40.7473 32.6609 36.3221C35.5006 31.9102 40.1801 31.0966 42.7877 31.4009C43.4117 31.4737 43.9171 31.6105 44.2502 31.7774C43.8709 32.0241 43.5597 32.3328 43.281 32.7338C42.6108 33.6979 42.1281 35.1953 41.3378 37.6468C40.8868 39.0458 40.3356 40.7556 39.5923 42.8543C37.8197 47.8589 33.5174 49.7648 30.7468 50.2587C30.2817 50.3416 29.8597 50.3847 29.5002 50.396C29.5359 50.0493 29.5549 49.6347 29.5704 49.163Z" fill="#548F09"/>
<path fill-rule="evenodd" clip-rule="evenodd" d="M29.6637 46.6379C32.2178 46.1745 35.1929 44.8019 37.241 41.5633C38.4309 39.6815 39.3473 38.1365 40.0972 36.8722C41.9442 33.7579 42.7807 32.3475 44.2067 31.8059C42.9475 32.6525 42.444 34.2145 41.3376 37.6467C40.8866 39.0457 40.3354 40.7555 39.5921 42.8542C37.5219 48.699 32.0015 50.3173 29.5 50.3959C29.5493 49.9165 29.5668 49.3071 29.5872 48.5967C29.6041 48.0076 29.623 47.3492 29.6637 46.6379ZM44.2318 31.7892C44.2379 31.7852 44.2439 31.7812 44.25 31.7773C44.223 31.7638 44.1948 31.7504 44.1656 31.7373C44.1886 31.7546 44.2107 31.7719 44.2318 31.7892Z" fill="#67AE0E"/>
<path d="M20.4114 29.9505C17.7023 28.1104 16.8513 25.6058 16.7645 24.5835C16.0698 24.5835 15.2015 27.037 17.2855 36.8508C19.3694 46.6647 26.1424 49.97 29.2683 50.396C32.9153 37.362 23.7979 32.2506 20.4114 29.9505Z" fill="#8DEA17"/>
<path fill-rule="evenodd" clip-rule="evenodd" d="M16.7646 23.354C17.4031 23.354 17.9353 23.8429 17.9894 24.4791C18.0465 25.1511 18.7149 27.3118 21.1022 28.9333C21.2844 29.057 21.4884 29.1919 21.7104 29.3387C23.4655 30.4991 26.3479 32.4048 28.483 35.4406C30.9456 38.9421 32.3734 43.8606 30.4522 50.7269C30.2868 51.318 29.7107 51.6965 29.1025 51.6136C25.4958 51.1221 18.2818 47.4591 16.0833 37.1058C15.0336 32.1626 14.7076 28.9879 14.7543 27.0076C14.7774 26.0282 14.8927 25.2541 15.1118 24.681C15.2936 24.2053 15.7674 23.354 16.7646 23.354ZM16.7148 24.5874C16.4186 24.6379 16.1048 25.1469 16.0087 26.4843C15.8828 28.2378 16.1315 31.4153 17.2856 36.8505C19.3696 46.6644 26.1425 49.9697 29.2685 50.3957C32.7083 38.1019 24.7925 32.8564 21.0407 30.3702C20.8148 30.2205 20.6039 30.0808 20.4116 29.9501C18.7384 28.8137 17.774 27.4238 17.2607 26.2862C17.1802 26.1078 17.1107 25.9356 17.0514 25.7716C16.8765 25.2879 16.7894 24.8751 16.7646 24.5832C16.7481 24.5832 16.7315 24.5846 16.7148 24.5874ZM17.4466 25.4732C17.4468 25.4741 17.4425 25.4834 17.4332 25.4982C17.4417 25.4798 17.4464 25.4723 17.4466 25.4732Z" fill="#548F09"/>
<path d="M20.3281 32.439C18.7968 31.4314 18.13 31.0365 17.8228 30.4219C18.13 33.1875 17.874 32.4226 19.0519 37.7969C19.5907 40.2552 22.3381 44.6313 24.105 44.8646C26.1663 37.7269 22.2421 33.6986 20.3281 32.439Z" fill="#A4FC34"/>
</g>
<defs>
<filter id="filter0_d_136_453" x="0" y="0" width="63" height="63" filterUnits="userSpaceOnUse" color-interpolation-filters="sRGB">
<feFlood flood-opacity="0" result="BackgroundImageFix"/>
<feColorMatrix in="SourceAlpha" type="matrix" values="0 0 0 0 0 0 0 0 0 0 0 0 0 0 0 0 0 0 127 0" result="hardAlpha"/>
<feOffset dx="4" dy="4"/>
<feColorMatrix type="matrix" values="0 0 0 0 0 0 0 0 0 0 0 0 0 0 0 0 0 0 0.2 0"/>
<feBlend mode="normal" in2="BackgroundImageFix" result="effect1_dropShadow_136_453"/>
<feBlend mode="normal" in="SourceGraphic" in2="effect1_dropShadow_136_453" result="shape"/>
</filter>
</defs>
</svg>
